<?xml version="1.0" encoding="UTF-8"?>
<svg xmlns="http://www.w3.org/2000/svg" xmlns:xlink="http://www.w3.org/1999/xlink" width="776.4pt" height="289.1pt" viewBox="0 0 776.4 289.1" version="1.1">
<defs>
<clipPath id="clip1">
  <path d="M 0 0 L 776 0 L 776 289.101563 L 0 289.101563 Z M 0 0 "/>
</clipPath>
</defs>
<g id="surface1">
<g clip-path="url(#clip1)" clip-rule="nonzero">
<path style=" stroke:none;fill-rule:evenodd;fill:rgb(0%,59.179688%,27.43988%);fill-opacity:1;" d="M 65.246094 8.773438 C 96.164063 4.570313 127.222656 1.089844 158.414063 -0.0898438 C 169.527344 0.0664063 180.636719 0.0664063 191.746094 -0.0664063 C 203.878906 0.445313 216.046875 1.652344 227.859375 4.5625 C 235.136719 6.480469 242.492188 9 248.433594 13.753906 C 252.109375 16.679688 255.007813 20.761719 255.84375 25.441406 C 256.6875 30 255.714844 34.683594 253.984375 38.90625 C 251.125 45.9375 246.523438 52.070313 241.601563 57.777344 C 233.644531 66.855469 224.507813 74.828125 215.109375 82.382813 C 212.988281 84.15625 210.550781 85.589844 208.761719 87.734375 C 223.644531 87.757813 238.613281 88.53125 253.222656 91.503906 C 260.960938 93.160156 268.714844 95.402344 275.496094 99.582031 C 279.796875 102.265625 283.644531 106.050781 285.375 110.914063 C 287.058594 115.734375 286.390625 121.058594 284.671875 125.78125 C 282.523438 131.636719 279.035156 136.902344 275.203125 141.796875 C 267.996094 150.855469 259.464844 158.734375 250.621094 166.152344 C 233.191406 180.597656 214.34375 193.226563 195.105469 205.121094 C 144.125 236.347656 90.265625 262.578125 35.765625 287.027344 C 34.058594 287.808594 32.3125 288.511719 30.519531 289.050781 C 32.78125 287.183594 35.378906 285.785156 37.835938 284.195313 C 74.851563 260.675781 111.640625 236.765625 147.335938 211.261719 C 165.378906 198.246094 183.285156 184.945313 199.890625 170.09375 C 207.136719 163.40625 214.40625 156.554688 220 148.367188 C 222.363281 144.664063 224.835938 140.4375 224.183594 135.867188 C 223.71875 132.652344 220.917969 130.429688 218.078125 129.273438 C 212.234375 126.867188 205.800781 126.636719 199.578125 126.480469 C 181.464844 126.3125 163.503906 128.96875 145.507813 130.621094 C 143.71875 130.835938 141.832031 130.882813 140.199219 131.734375 C 96.957031 156.371094 52.140625 178.148438 6.722656 198.445313 C 4.554688 199.453125 2.382813 200.449219 0.0820313 201.117188 C 2.382813 199.289063 4.945313 197.855469 7.410156 196.273438 C 38 176.871094 68.390625 157.152344 98.179688 136.535156 C 100.160156 135.222656 102.15625 133.90625 103.886719 132.269531 C 101.359375 131.300781 98.398438 130.863281 96.519531 128.738281 C 95.210938 127.40625 95.410156 125.410156 95.339844 123.699219 C 95.4375 114.746094 95.269531 105.796875 95.425781 96.851563 C 115.621094 93.976563 135.910156 91.695313 156.238281 89.941406 C 158.28125 89.679688 160.6875 90.035156 162.277344 88.453125 C 170.371094 81.460938 178.40625 74.316406 185.308594 66.113281 C 188.246094 62.554688 191.058594 58.800781 192.867188 54.527344 C 194.003906 51.75 194.550781 48.425781 193.109375 45.660156 C 191.746094 43.1875 189.148438 41.710938 186.570313 40.796875 C 180.726563 38.757813 174.464844 38.558594 168.339844 38.453125 C 153.234375 38.410156 138.226563 40.300781 123.226563 41.804688 C 108.480469 43.351563 93.679688 45.277344 78.828125 44.652344 C 74.703125 44.339844 70.203125 43.96875 66.824219 41.335938 C 64.671875 39.632813 65.125 36.636719 65.0625 34.214844 C 65.226563 25.730469 64.847656 17.242188 65.246094 8.773438 Z M 447.554688 95.488281 C 452.234375 91.058594 456.691406 86.394531 461.519531 82.121094 C 468.640625 88.53125 475.625 95.097656 482.519531 101.742188 C 476.050781 108.480469 469.273438 114.917969 462.464844 121.308594 C 455.507813 114.726563 448.449219 108.25 441.570313 101.59375 C 443.253906 99.269531 445.546875 97.511719 447.554688 95.488281 Z M 340.089844 94.621094 C 355.722656 94.515625 371.359375 94.613281 386.992188 94.578125 C 393.417969 94.628906 399.984375 94.195313 406.238281 95.976563 C 413.265625 97.832031 419.65625 102.152344 423.789063 108.160156 C 429.433594 116.601563 430.234375 127.648438 427.5 137.25 C 425.34375 144.515625 419.757813 150.007813 413.75 154.296875 C 416.824219 156.449219 420.246094 158.160156 422.894531 160.886719 C 432.136719 169.746094 433.550781 184.128906 430.164063 195.933594 C 427.847656 203.714844 422.382813 210.445313 415.332031 214.441406 C 408.519531 218.429688 400.46875 219.6875 392.664063 219.59375 C 375.136719 219.542969 357.609375 219.6875 340.089844 219.53125 C 339.96875 177.894531 339.960938 136.25 340.089844 94.621094 Z M 376.847656 122.769531 C 376.671875 129.699219 376.65625 136.648438 376.855469 143.585938 C 380.355469 143.621094 384.125 144.125 387.382813 142.519531 C 393.355469 139.445313 394.320313 130.414063 390.046875 125.582031 C 386.675781 121.972656 381.3125 122.597656 376.847656 122.769531 Z M 376.566406 167.097656 C 376.585938 174.847656 376.578125 182.59375 376.566406 190.339844 C 380.128906 190.617188 383.804688 190.855469 387.296875 189.933594 C 396.824219 186.925781 396.613281 170.609375 387.214844 167.550781 C 383.742188 166.636719 380.105469 166.960938 376.566406 167.097656 Z M 649.703125 124.152344 C 656.554688 123.054688 663.3125 121.433594 670.15625 120.25 C 668.253906 125.765625 664.710938 130.679688 663.226563 136.308594 C 666.515625 140.59375 669.828125 145.046875 671.25 150.371094 C 674.132813 160.886719 673.25 172.9375 666.917969 182.074219 C 664.5625 185.675781 661.332031 188.550781 658.082031 191.3125 C 659.410156 193.234375 661.332031 194.605469 662.929688 196.300781 C 667.117188 200.539063 670.269531 205.871094 671.605469 211.707031 C 673.664063 221.574219 671.484375 232.558594 664.691406 240.195313 C 656.839844 249.175781 645.066406 253.8125 633.398438 254.925781 C 617.429688 256.394531 601.003906 254.179688 586.210938 247.933594 C 590.417969 239.613281 595.230469 231.605469 599.582031 223.355469 C 600.285156 221.957031 601.152344 220.644531 602.039063 219.351563 C 610.722656 222.867188 620.40625 225.414063 629.734375 223.136719 C 633.511719 222.34375 637.160156 219.375 637.214844 215.25 C 637.785156 210.757813 634.476563 206.789063 630.414063 205.339844 C 621.980469 202.058594 612.816406 204.097656 604.105469 204.757813 C 604.949219 202.785156 605.832031 200.824219 606.738281 198.878906 C 602.421875 196.367188 598.078125 193.71875 594.8125 189.855469 C 585.742188 179.660156 584 164.746094 587.117188 151.855469 C 591.164063 135.953125 606.292969 123.925781 622.613281 123.140625 C 631.6875 122.285156 640.644531 125.589844 649.703125 124.152344 Z M 626.484375 155.234375 C 619.226563 157.050781 617.773438 167.613281 623.097656 172.234375 C 626.070313 174.742188 630.613281 175.039063 634.023438 173.25 C 639.722656 169.972656 640.242188 160.722656 635.058594 156.730469 C 632.671875 154.84375 629.359375 154.503906 626.484375 155.234375 Z M 534.980469 128.96875 C 542.378906 123.527344 552.574219 122.671875 561.136719 125.59375 C 565.996094 127.371094 569.921875 131.273438 572.03125 135.972656 C 575.105469 142.773438 575.652344 150.371094 575.652344 157.734375 C 575.636719 177.832031 575.679688 197.929688 575.636719 218.019531 C 564.402344 219.417969 553.097656 220.433594 541.824219 221.496094 C 541.578125 202.597656 541.804688 183.695313 541.71875 164.789063 C 541.648438 162.851563 541.519531 160.769531 540.335938 159.144531 C 538.46875 156.339844 533.652344 156.292969 531.738281 159.074219 C 530.351563 160.921875 530.238281 163.328125 530.203125 165.542969 C 530.203125 183.042969 530.238281 200.539063 530.191406 218.03125 C 518.78125 219.351563 507.34375 220.566406 495.894531 221.46875 C 495.957031 190.15625 495.9375 158.847656 495.910156 127.53125 C 502.375 126.722656 508.898438 126.382813 515.375 125.652344 C 519.421875 125.324219 523.445313 124.671875 527.511719 124.765625 C 527.554688 128.660156 527.414063 132.566406 527.628906 136.464844 C 529.886719 133.792969 532.070313 130.984375 534.980469 128.96875 Z M 717.410156 124.84375 C 728.183594 123.246094 739.605469 124.082031 749.523438 128.875 C 760.378906 134.105469 769.003906 143.859375 772.746094 155.339844 C 776.417969 166.925781 776.480469 179.660156 772.667969 191.21875 C 768.785156 203.03125 759.796875 213.09375 748.453125 218.195313 C 737.71875 222.972656 725.402344 223.511719 714.007813 221.078125 C 700.015625 218.019531 687.945313 207.753906 682.445313 194.5625 C 678.511719 185.121094 677.710938 174.601563 679.015625 164.519531 C 680.152344 155.644531 683.78125 147.035156 689.6875 140.269531 C 696.6875 132.011719 706.703125 126.453125 717.40625 124.84375 Z M 723.761719 158.863281 C 713.140625 160.785156 709.953125 175.949219 717.328125 183.070313 C 720.765625 186.648438 726.203125 187.335938 730.859375 186.308594 C 736.09375 185.0625 739.960938 180.128906 740.386719 174.839844 C 741.011719 169.921875 739.472656 164.527344 735.503906 161.359375 C 732.273438 158.65625 727.78125 158.125 723.761719 158.863281 Z M 445.136719 128.113281 C 456.457031 127.207031 467.761719 126.042969 479.097656 125.226563 C 479.203125 156.128906 479.152344 187.039063 479.125 217.941406 C 467.761719 218.792969 456.414063 219.949219 445.042969 220.476563 C 444.859375 193.882813 445.015625 167.289063 444.964844 140.703125 C 445.042969 136.507813 444.75 132.304688 445.136719 128.113281 Z M 445.136719 128.113281 "/>
</g>
</g>
</svg>
